<svg width="254" height="207" viewBox="0 0 254 207" fill="none" xmlns="http://www.w3.org/2000/svg">
<g clip-path="url(#clip0_1564_23653)">
<path fill-rule="evenodd" clip-rule="evenodd" d="M119.211 98.1019H134.115V87.2699H119.211V98.1019ZM141.307 135.789L134.115 128.598V108.238H119.211V119.067H124.497V135.789H86.1172V119.067H93.2212V87.2699H86.1172V70.4609H150.318L161.148 81.2919V94.8069L151.53 101.999L161.148 109.277V121.407H167.215V135.789H141.307Z" fill="#FFFFFE"/>
<path fill-rule="evenodd" clip-rule="evenodd" d="M161.179 17.0268V51.1648L146.71 65.5488H107.719L93.3375 51.1648V17.0268H86.2305V0.21875H125.564V17.0268H119.329V48.8247H141.337V17.0268H135.964V0.21875H167.327V17.0268H161.179Z" fill="#FFFFFE"/>
<path fill-rule="evenodd" clip-rule="evenodd" d="M205.495 28.3866H227.673V16.9486H205.495V28.3866ZM243.27 39.7366H205.495V48.7476H212.599V65.4716H172.395V48.7476H179.499V16.9486H172.395V0.140625H242.058L253.493 11.5776V29.5116L243.27 39.7366Z" fill="#FFFFFE"/>
<path fill-rule="evenodd" clip-rule="evenodd" d="M238.851 135.789H189.462L172.395 119.067V87.1849L189.462 70.4609H228.37L233.22 76.5269L237.983 70.4609H253.493V97.9469H233.22V87.1849H198.997V119.067H233.22V108.084H253.493V121.494L238.851 135.789Z" fill="#FFFFFE"/>
<path fill-rule="evenodd" clip-rule="evenodd" d="M160.136 206.34H86.1172V189.618H93.2212V157.82H86.1172V141.012H126.315V157.82H119.211V189.618H147.053V168.527H167.326V198.544L160.136 206.34Z" fill="#FFFFFE"/>
<path fill-rule="evenodd" clip-rule="evenodd" d="M246.305 206.34H172.281V189.618H179.385V157.82H172.281V141.012H212.482V157.82H205.379V189.618H233.221V168.527H253.494V198.544L246.305 206.34Z" fill="#FFFFFE"/>
<path fill-rule="evenodd" clip-rule="evenodd" d="M68.5104 65.5488H23.2034L17.8304 59.8288L13.0674 65.5488H-0.015625V45.6198H18.2664V51.2528H52.3944V41.7198H11.7684L-0.015625 30.8898V14.7738L13.4984 0.21875H54.2154L59.5844 5.93775L64.3524 0.21875H77.4354V20.1458H59.1534V14.5148H28.2284V24.0457H67.8174L81.1614 36.6068V51.8578L68.5104 65.5488Z" fill="#FFFFFE"/>
<path fill-rule="evenodd" clip-rule="evenodd" d="M73.8914 135.789H-0.015625V119.067H7.08838V87.2699H-0.015625V70.4609H73.8914L81.0824 78.3449V100.96H60.8094V87.2699H33.0834V97.0599H45.0414V109.189H33.0834V119.067H60.8094V105.377H81.0824V127.992L73.8914 135.789Z" fill="#FFFFFE"/>
<path fill-rule="evenodd" clip-rule="evenodd" d="M73.8914 206.34H-0.015625V189.618H7.08838V157.82H-0.015625V141.012H73.8914L81.0824 148.897V171.511H60.8094V157.82H33.0834V167.61H45.0414V179.741H33.0834V189.618H60.8094V175.928H81.0824V198.544L73.8914 206.34Z" fill="#FFFFFE"/>
</g>
<defs>
<clipPath id="clip0_1564_23653">
<rect width="254" height="207" fill="white"/>
</clipPath>
</defs>
</svg>
